# Exported from Clara.io
g Box
v -0.00936677058537801 5.421992301940918 -0.004587968162619896
v 0.3960793614387512 0.1472635269165039 0.4042186439037323
v 0.5 -0.5 0.5
v 0.5 -0.5 -0.5
v -0.5 -0.5 -0.5
v -0.5 -0.5 0.5

vn 0.9947009728992491 0.08981933909842438 0.05002460231935401
vn 0.9947009728992491 0.08981933909842438 0.05002460231935401
vn 0.9947009728992491 0.08981933909842438 0.05002460231935401
vn 0.9947009728992491 0.08981933909842438 0.05002460231935401
vn -0.9965855599280624 0.08256646863509595 0
vn -0.9965855599280624 0.08256646863509595 0
vn -0.9965855599280624 0.08256646863509595 0
vn 0 -1 0
vn 0 -1 0
vn 0 -1 0
vn 0 -1 0
vn 0.04248447018995994 0.08844880681929843 0.9951742954703566
vn 0.04248447018995994 0.08844880681929843 0.9951742954703566
vn 0.04248447018995994 0.08844880681929843 0.9951742954703566
vn 0.04248447018995994 0.08844880681929843 0.9951742954703566
vn 0 0.08336510965640015 -0.9965190708119823
vn 0 0.08336510965640015 -0.9965190708119823
vn 0 0.08336510965640015 -0.9965190708119823

vt 0 1
vt 0 0
vt 1 0
vt 1 1
vt 0 1
vt 0 0
vt 1 0
vt 0 1
vt 0 0
vt 1 0
vt 1 1
vt 0 1
vt 0 0
vt 1 0
vt 1 1
vt 0 1
vt 0 0
vt 1 0

f 2/1/1 3/2/2 4/3/3 1/4/4
f 1/5/5 5/6/6 6/7/7
f 6/8/8 5/9/9 4/10/10 3/11/11
f 1/12/12 6/13/13 3/14/14 2/15/15
f 1/16/16 4/17/17 5/18/18